<?xml version="1.0" encoding="utf-8"?>
<!-- Generator: Adobe Illustrator 23.0.6, SVG Export Plug-In . SVG Version: 6.00 Build 0)  -->
<svg version="1.1" id="Layer_1" xmlns="http://www.w3.org/2000/svg" xmlns:xlink="http://www.w3.org/1999/xlink" x="0px" y="0px"
	 viewBox="0 0 30.73 30" style="enable-background:new 0 0 30.73 30;" xml:space="preserve">
<style type="text/css">
	.st0{fill:#218457;}
</style>
<path class="st0" d="M13.9,30c-0.5,0-1-0.13-1.46-0.39c-0.49-0.28-0.87-0.69-1.12-1.16L0.37,8.74c-0.78-1.41-0.28-3.19,1.14-3.98
	C2.92,3.97,4.7,4.48,5.49,5.9l8.46,15.23L25.27,1.47c0.81-1.4,2.6-1.88,4-1.08c0.94,0.54,1.47,1.53,1.47,2.54
	c0,0.5-0.13,1-0.39,1.46l-13.9,24.15c0,0,0,0,0,0.01c-0.36,0.62-0.92,1.07-1.55,1.29c-0.15,0.06-0.31,0.1-0.48,0.13
	C14.24,29.99,14.07,30,13.9,30z"/>
</svg>
